<svg width="640" height="480" viewBox="0 0 640 480" xmlns="http://www.w3.org/2000/svg" role="img" aria-labelledby="heroAppTitle heroAppDesc">
  <title id="heroAppTitle">Painel MeuCondomínio com aplicativo móvel</title>
  <desc id="heroAppDesc">Ilustração de um smartphone exibindo o aplicativo do condomínio com gráficos e um carro chegando à portaria.</desc>
  <defs>
    <linearGradient id="hero-bg" x1="0" y1="0" x2="1" y2="1">
      <stop offset="0" stop-color="#0F3D2E" />
      <stop offset="1" stop-color="#145943" />
    </linearGradient>
    <linearGradient id="hero-light" x1="0" y1="0" x2="1" y2="1">
      <stop offset="0" stop-color="#20C997" stop-opacity="0.35" />
      <stop offset="1" stop-color="#14B8A6" stop-opacity="0" />
    </linearGradient>
    <linearGradient id="hero-sky" x1="0" y1="0" x2="0" y2="1">
      <stop offset="0" stop-color="#F8FBFA" stop-opacity="0.9" />
      <stop offset="1" stop-color="#D9F4EA" stop-opacity="0.55" />
    </linearGradient>
    <linearGradient id="hero-car" x1="0" y1="0" x2="1" y2="1">
      <stop offset="0" stop-color="#20C997" />
      <stop offset="1" stop-color="#0BA67C" />
    </linearGradient>
    <filter id="hero-shadow" x="-40" y="-40" width="720" height="560" color-interpolation-filters="sRGB">
      <feDropShadow dx="0" dy="32" stdDeviation="32" flood-color="#0B2B20" flood-opacity="0.45" />
    </filter>
  </defs>
  <rect width="640" height="480" rx="42" fill="url(#hero-bg)" />
  <g opacity="0.55">
    <path d="M64 120c32-48 124-92 216-76s170 26 238-12c20-11 42-16 62-10v328c-72 52-180 64-272 32s-220-12-276 24V176c12-28 20-40 32-56Z" fill="url(#hero-light)" />
  </g>
  <g transform="translate(56 72)" opacity="0.85">
    <rect x="0" y="120" width="216" height="132" rx="32" fill="url(#hero-sky)" />
    <rect x="24" y="152" width="48" height="48" rx="12" fill="#20C997" opacity="0.35" />
    <rect x="84" y="156" width="96" height="12" rx="6" fill="#0F3D2E" opacity="0.55" />
    <rect x="84" y="176" width="72" height="12" rx="6" fill="#145943" opacity="0.35" />
    <rect x="84" y="204" width="92" height="14" rx="7" fill="#20C997" opacity="0.45" />
    <rect x="24" y="216" width="160" height="8" rx="4" fill="#0F3D2E" opacity="0.14" />
    <rect x="24" y="232" width="112" height="8" rx="4" fill="#0F3D2E" opacity="0.14" />
    <circle cx="48" cy="176" r="10" fill="#0F3D2E" opacity="0.18" />
    <circle cx="66" cy="196" r="8" fill="#0F3D2E" opacity="0.12" />
  </g>
  <g filter="url(#hero-shadow)" transform="translate(184 36)">
    <rect width="224" height="408" rx="48" fill="#061610" />
    <rect x="16" y="32" width="192" height="344" rx="28" fill="#F6F9F8" />
    <rect x="86" y="12" width="52" height="8" rx="4" fill="#12221A" />
    <circle cx="112" cy="380" r="18" fill="#111827" opacity="0.4" />
    <g transform="translate(36 72)">
      <rect width="144" height="40" rx="16" fill="#0F3D2E" />
      <rect x="16" y="12" width="72" height="16" rx="8" fill="#F6F9F8" />
      <rect x="96" y="12" width="28" height="16" rx="8" fill="#20C997" />
    </g>
    <g transform="translate(36 128)">
      <rect width="72" height="72" rx="20" fill="#145943" opacity="0.14" />
      <rect x="20" y="16" width="32" height="32" rx="10" fill="#20C997" opacity="0.5" />
      <rect x="84" y="12" width="72" height="12" rx="6" fill="#12221A" opacity="0.25" />
      <rect x="84" y="32" width="92" height="12" rx="6" fill="#20C997" opacity="0.45" />
      <rect x="84" y="52" width="60" height="12" rx="6" fill="#0F3D2E" opacity="0.2" />
    </g>
    <g transform="translate(36 220)">
      <rect width="152" height="96" rx="24" fill="#0F3D2E" opacity="0.08" />
      <rect x="16" y="20" width="120" height="12" rx="6" fill="#0F3D2E" opacity="0.32" />
      <rect x="16" y="44" width="88" height="36" rx="16" fill="#20C997" opacity="0.28" />
      <rect x="112" y="56" width="24" height="12" rx="6" fill="#12221A" opacity="0.28" />
    </g>
    <g transform="translate(36 332)">
      <rect width="152" height="24" rx="12" fill="#0F3D2E" opacity="0.12" />
      <rect x="112" y="4" width="32" height="16" rx="8" fill="#20C997" opacity="0.55" />
    </g>
  </g>
  <g transform="translate(360 228)">
    <path d="M36 84h176l24 12 12 32-12 20H36L8 128l8-20 8-8h-8l-16-12 20-16 16-4h16l20 12z" fill="#082016" opacity="0.4" />
    <g>
      <path d="M48 0h136a28 28 0 0 1 26 18l20 52H30l8-44C40 10 43 0 48 0Z" fill="url(#hero-car)" />
      <path d="M28 70h196l4 12c5 14-6 26-20 26H56c-14 0-28-8-32-20l4-18Z" fill="#0C8E69" />
      <rect x="48" y="16" width="120" height="32" rx="14" fill="#F6F9F8" />
      <rect x="60" y="24" width="68" height="16" rx="8" fill="#145943" opacity="0.3" />
      <circle cx="88" cy="84" r="32" fill="#061610" />
      <circle cx="196" cy="84" r="32" fill="#061610" />
      <circle cx="88" cy="84" r="18" fill="#F6F9F8" />
      <circle cx="196" cy="84" r="18" fill="#F6F9F8" />
      <rect x="148" y="24" width="32" height="16" rx="8" fill="#0F3D2E" opacity="0.35" />
    </g>
  </g>
  <g transform="translate(460 84)">
    <rect width="120" height="152" rx="26" fill="#F6F9F8" opacity="0.92" />
    <rect x="16" y="24" width="88" height="12" rx="6" fill="#0F3D2E" opacity="0.45" />
    <rect x="16" y="48" width="72" height="12" rx="6" fill="#145943" opacity="0.3" />
    <rect x="16" y="72" width="88" height="12" rx="6" fill="#0F3D2E" opacity="0.18" />
    <rect x="16" y="108" width="56" height="32" rx="12" fill="#20C997" opacity="0.5" />
    <rect x="80" y="112" width="24" height="24" rx="10" fill="#0F3D2E" opacity="0.2" />
  </g>
</svg>
