<svg width="420" height="320" viewBox="0 0 420 320" xmlns="http://www.w3.org/2000/svg" role="img" aria-labelledby="heroCollabTitle heroCollabDesc">
  <title id="heroCollabTitle">Equipe colaborando no painel do MeuCondomínio</title>
  <desc id="heroCollabDesc">Duas pessoas analisam um painel digital com indicadores verdes e cartões de moradores.</desc>
  <defs>
    <linearGradient id="collab-bg" x1="0" y1="0" x2="1" y2="1">
      <stop offset="0" stop-color="#E9F6F1" />
      <stop offset="1" stop-color="#CDEADF" />
    </linearGradient>
    <linearGradient id="collab-chart" x1="0" y1="0" x2="1" y2="1">
      <stop offset="0" stop-color="#20C997" />
      <stop offset="1" stop-color="#12A987" />
    </linearGradient>
    <linearGradient id="collab-avatar" x1="0" y1="0" x2="0" y2="1">
      <stop offset="0" stop-color="#0F3D2E" />
      <stop offset="1" stop-color="#145943" />
    </linearGradient>
    <filter id="collab-shadow" x="-40" y="-40" width="500" height="400" color-interpolation-filters="sRGB">
      <feDropShadow dx="0" dy="24" stdDeviation="24" flood-color="#0F3D2E" flood-opacity="0.18" />
    </filter>
  </defs>
  <rect width="420" height="320" rx="32" fill="url(#collab-bg)" />
  <g transform="translate(36 40)" filter="url(#collab-shadow)">
    <rect width="348" height="220" rx="28" fill="#FFFFFF" />
    <rect x="32" y="40" width="284" height="32" rx="16" fill="#F1F5F3" />
    <rect x="32" y="88" width="112" height="72" rx="18" fill="#F7FAF9" />
    <rect x="164" y="88" width="152" height="72" rx="20" fill="#ECF7F3" />
    <rect x="32" y="180" width="92" height="20" rx="10" fill="#D8EDE4" />
    <rect x="132" y="180" width="92" height="20" rx="10" fill="#D8EDE4" />
    <rect x="232" y="180" width="92" height="20" rx="10" fill="#D8EDE4" />
    <g transform="translate(44 52)">
      <circle cx="20" cy="20" r="20" fill="url(#collab-avatar)" />
      <rect x="48" y="8" width="44" height="10" rx="5" fill="#0F3D2E" opacity="0.6" />
      <rect x="48" y="24" width="64" height="10" rx="5" fill="#20C997" opacity="0.5" />
    </g>
    <g transform="translate(188 104)">
      <rect width="120" height="16" rx="8" fill="#0F3D2E" opacity="0.16" />
      <rect y="24" width="72" height="12" rx="6" fill="#145943" opacity="0.24" />
      <rect y="44" width="100" height="12" rx="6" fill="#20C997" opacity="0.4" />
      <rect x="88" y="24" width="24" height="24" rx="10" fill="#0F3D2E" opacity="0.08" />
    </g>
    <g transform="translate(64 116)">
      <rect width="72" height="12" rx="6" fill="#0F3D2E" opacity="0.18" />
      <rect y="20" width="60" height="12" rx="6" fill="#145943" opacity="0.18" />
      <rect y="40" width="48" height="12" rx="6" fill="#20C997" opacity="0.32" />
    </g>
    <g transform="translate(176 40)">
      <rect width="120" height="32" rx="16" fill="#0F3D2E" opacity="0.12" />
      <path d="M12 22c18-12 42-16 70-2 16 8 26 6 34-4" fill="none" stroke="url(#collab-chart)" stroke-width="6" stroke-linecap="round" />
    </g>
  </g>
  <g transform="translate(76 228)">
    <path d="M0 48c12-16 32-26 52-20 20 5 32 26 28 44h-64c-8 0-16-8-16-16Z" fill="#0F3D2E" opacity="0.16" />
    <circle cx="44" cy="20" r="20" fill="#F6F9F8" stroke="#0F3D2E" stroke-width="4" />
    <path d="M32 24c6-10 16-12 24 0" stroke="#0F3D2E" stroke-width="3" stroke-linecap="round" />
    <circle cx="36" cy="18" r="3" fill="#0F3D2E" />
    <circle cx="52" cy="18" r="3" fill="#0F3D2E" />
  </g>
  <g transform="translate(292 228)">
    <path d="M24 60c-8-16-6-34 6-44 14-12 36-10 48 4 10 12 12 32 4 44H24Z" fill="#0F3D2E" opacity="0.16" />
    <rect x="18" y="8" width="52" height="56" rx="18" fill="#145943" />
    <rect x="32" y="20" width="24" height="12" rx="6" fill="#F6F9F8" opacity="0.7" />
    <rect x="28" y="40" width="32" height="12" rx="6" fill="#20C997" opacity="0.8" />
  </g>
</svg>
