<svg width="220" height="180" viewBox="0 0 220 180" xmlns="http://www.w3.org/2000/svg" role="img" aria-labelledby="sofaCardTitle sofaCardDesc">
  <title id="sofaCardTitle">Card de marketplace para sofá 3 lugares</title>
  <desc id="sofaCardDesc">Cartão de produto com sofá em tom verde, preço destacado e avaliação máxima.</desc>
  <defs>
    <linearGradient id="sofa-bg" x1="0" y1="0" x2="1" y2="1">
      <stop offset="0" stop-color="#F1FAF6" />
      <stop offset="1" stop-color="#DBF2E7" />
    </linearGradient>
    <linearGradient id="sofa-seat" x1="0" y1="0" x2="1" y2="1">
      <stop offset="0" stop-color="#20C997" />
      <stop offset="1" stop-color="#149E78" />
    </linearGradient>
  </defs>
  <rect width="220" height="180" rx="24" fill="url(#sofa-bg)" />
  <g transform="translate(22 40)">
    <rect width="176" height="80" rx="28" fill="url(#sofa-seat)" />
    <rect x="12" y="24" width="152" height="36" rx="16" fill="#0F3D2E" opacity="0.08" />
    <rect x="18" y="32" width="60" height="20" rx="10" fill="#0F3D2E" opacity="0.12" />
    <rect x="86" y="32" width="60" height="20" rx="10" fill="#F6F9F8" opacity="0.12" />
    <circle cx="36" cy="72" r="12" fill="#0F3D2E" opacity="0.18" />
    <circle cx="164" cy="72" r="12" fill="#0F3D2E" opacity="0.18" />
  </g>
  <rect x="108" y="24" width="92" height="14" rx="7" fill="#145943" opacity="0.35" />
  <rect x="108" y="44" width="76" height="12" rx="6" fill="#0F3D2E" opacity="0.2" />
  <rect x="108" y="64" width="52" height="12" rx="6" fill="#20C997" opacity="0.75" />
  <rect x="108" y="86" width="44" height="28" rx="12" fill="#20C997" />
  <rect x="160" y="90" width="36" height="20" rx="10" fill="#0F3D2E" opacity="0.08" />
  <g transform="translate(108 124)">
    <rect width="88" height="16" rx="8" fill="#D7ECE3" />
    <rect y="24" width="68" height="12" rx="6" fill="#D7ECE3" />
  </g>
  <g transform="translate(108 140)">
    <rect width="56" height="10" rx="5" fill="#20C997" opacity="0.8" />
    <rect x="64" width="24" height="10" rx="5" fill="#145943" opacity="0.4" />
  </g>
  <g transform="translate(108 154)" fill="#F6F9F8">
    <rect width="12" height="12" rx="6" fill="#20C997" />
    <rect x="18" width="12" height="12" rx="6" fill="#20C997" />
    <rect x="36" width="12" height="12" rx="6" fill="#20C997" />
    <rect x="54" width="12" height="12" rx="6" fill="#20C997" />
    <rect x="72" width="12" height="12" rx="6" fill="#20C997" />
  </g>
</svg>
