<svg width="220" height="180" viewBox="0 0 220 180" xmlns="http://www.w3.org/2000/svg" role="img" aria-labelledby="iphoneCardTitle iphoneCardDesc">
  <title id="iphoneCardTitle">Card de marketplace para iPhone 13 Pro</title>
  <desc id="iphoneCardDesc">Produto com foto, preço, torre do condomínio e avaliação 4,9 estrelas.</desc>
  <defs>
    <linearGradient id="iphone-bg" x1="0" y1="0" x2="1" y2="1">
      <stop offset="0" stop-color="#F3FBF7" />
      <stop offset="1" stop-color="#E2F7EE" />
    </linearGradient>
    <linearGradient id="iphone-photo" x1="0" y1="0" x2="0" y2="1">
      <stop offset="0" stop-color="#222F3E" />
      <stop offset="1" stop-color="#0F172A" />
    </linearGradient>
  </defs>
  <rect width="220" height="180" rx="24" fill="url(#iphone-bg)" />
  <rect x="16" y="20" width="72" height="96" rx="16" fill="url(#iphone-photo)" />
  <rect x="40" y="44" width="24" height="48" rx="12" fill="#0F172A" />
  <rect x="32" y="30" width="40" height="6" rx="3" fill="#F6F9F8" opacity="0.35" />
  <circle cx="52" cy="110" r="6" fill="#F6F9F8" opacity="0.5" />
  <rect x="100" y="28" width="96" height="14" rx="7" fill="#145943" opacity="0.35" />
  <rect x="100" y="48" width="72" height="12" rx="6" fill="#0F3D2E" opacity="0.2" />
  <rect x="100" y="66" width="52" height="12" rx="6" fill="#20C997" opacity="0.75" />
  <rect x="100" y="88" width="44" height="28" rx="12" fill="#20C997" />
  <rect x="152" y="92" width="36" height="20" rx="10" fill="#0F3D2E" opacity="0.1" />
  <g transform="translate(100 124)">
    <rect width="88" height="16" rx="8" fill="#D7ECE3" />
    <rect y="24" width="68" height="12" rx="6" fill="#D7ECE3" />
  </g>
  <g transform="translate(100 140)">
    <rect width="56" height="10" rx="5" fill="#20C997" opacity="0.8" />
    <rect x="64" width="24" height="10" rx="5" fill="#145943" opacity="0.4" />
  </g>
  <g transform="translate(100 154)" fill="#F6F9F8">
    <rect width="12" height="12" rx="6" fill="#20C997" />
    <rect x="18" width="12" height="12" rx="6" fill="#20C997" />
    <rect x="36" width="12" height="12" rx="6" fill="#20C997" />
    <rect x="54" width="12" height="12" rx="6" fill="#20C997" />
    <rect x="72" width="12" height="12" rx="6" fill="#D7ECE3" />
  </g>
</svg>
