<svg width="320" height="220" viewBox="0 0 320 220" xmlns="http://www.w3.org/2000/svg" role="img" aria-labelledby="mock2Title mock2Desc">
  <title id="mock2Title">Experiência dos moradores</title>
  <desc id="mock2Desc">Tela simulada de app com feed de avisos e marketplace interno.</desc>
  <defs>
    <linearGradient id="mock2-surface" x1="20" y1="16" x2="300" y2="204" gradientUnits="userSpaceOnUse">
      <stop offset="0" stop-color="#020617"/>
      <stop offset="1" stop-color="#111C3B"/>
    </linearGradient>
    <filter id="mock2-shadow" x="-40" y="-40" width="400" height="300" color-interpolation-filters="sRGB">
      <feDropShadow dx="0" dy="18" stdDeviation="22" flood-color="#020617" flood-opacity="0.45"/>
    </filter>
    <linearGradient id="mock2-pill" x1="0" y1="0" x2="1" y2="0">
      <stop offset="0" stop-color="#A855F7"/>
      <stop offset="1" stop-color="#38BDF8"/>
    </linearGradient>
  </defs>
  <g filter="url(#mock2-shadow)">
    <rect x="24" y="20" width="272" height="176" rx="28" fill="url(#mock2-surface)" stroke="#1E293B" stroke-opacity="0.6"/>
    <rect x="52" y="52" width="96" height="28" rx="14" fill="#0B1120" stroke="#1E293B" stroke-opacity="0.6"/>
    <rect x="68" y="62" width="64" height="12" rx="6" fill="#F8FAFC" opacity="0.85"/>
    <rect x="52" y="92" width="216" height="36" rx="18" fill="#050C26" stroke="#1E293B" stroke-opacity="0.5"/>
    <rect x="68" y="102" width="88" height="12" rx="6" fill="#22C55E" opacity="0.85"/>
    <rect x="168" y="102" width="80" height="12" rx="6" fill="#38BDF8" opacity="0.7"/>
    <rect x="52" y="140" width="216" height="48" rx="18" fill="#020617" stroke="#1E293B" stroke-opacity="0.5"/>
    <rect x="68" y="150" width="60" height="12" rx="6" fill="#F1F5F9" opacity="0.8"/>
    <rect x="136" y="150" width="88" height="12" rx="6" fill="#5EEAD4" opacity="0.75"/>
    <rect x="224" y="148" width="32" height="32" rx="10" fill="url(#mock2-pill)"/>
  </g>
</svg>
