<svg width="420" height="320" viewBox="0 0 420 320" xmlns="http://www.w3.org/2000/svg" role="img" aria-labelledby="mobileTitle mobileDesc">
  <title id="mobileTitle">Aplicativo de moradores MeuCondomínio</title>
  <desc id="mobileDesc">Ilustração de dois celulares com reservas aprovadas, chat com portaria e botões de ação rápidos.</desc>
  <defs>
    <linearGradient id="mobile-bg" x1="0" y1="0" x2="1" y2="1">
      <stop offset="0" stop-color="#E7F5F0" />
      <stop offset="1" stop-color="#D0EBE0" />
    </linearGradient>
    <linearGradient id="mobile-screen" x1="0" y1="0" x2="0" y2="1">
      <stop offset="0" stop-color="#FFFFFF" />
      <stop offset="1" stop-color="#F3F9F6" />
    </linearGradient>
    <linearGradient id="mobile-primary" x1="0" y1="0" x2="1" y2="1">
      <stop offset="0" stop-color="#20C997" />
      <stop offset="1" stop-color="#12A987" />
    </linearGradient>
    <filter id="mobile-shadow" x="-60" y="-40" width="540" height="420" color-interpolation-filters="sRGB">
      <feDropShadow dx="0" dy="24" stdDeviation="28" flood-color="#0F3D2E" flood-opacity="0.22" />
    </filter>
  </defs>
  <rect width="420" height="320" rx="36" fill="url(#mobile-bg)" />
  <g transform="translate(54 40)" filter="url(#mobile-shadow)">
    <g transform="rotate(-6 140 112)">
      <rect x="16" y="32" width="156" height="252" rx="32" fill="#0F3D2E" />
      <rect x="28" y="52" width="132" height="212" rx="24" fill="url(#mobile-screen)" />
      <rect x="82" y="38" width="36" height="8" rx="4" fill="#12221A" />
      <circle cx="94" cy="246" r="18" fill="#0F3D2E" opacity="0.2" />
      <g transform="translate(44 80)">
        <rect width="96" height="28" rx="12" fill="#0F3D2E" opacity="0.12" />
        <rect y="44" width="96" height="72" rx="16" fill="#ECF7F3" />
        <rect x="16" y="60" width="32" height="32" rx="10" fill="#20C997" opacity="0.6" />
        <rect x="56" y="56" width="32" height="12" rx="6" fill="#0F3D2E" opacity="0.25" />
        <rect x="56" y="76" width="32" height="12" rx="6" fill="#20C997" opacity="0.55" />
        <rect y="128" width="96" height="12" rx="6" fill="#0F3D2E" opacity="0.12" />
      </g>
    </g>
    <g transform="translate(156 0)">
      <rect x="16" y="12" width="168" height="280" rx="40" fill="#061610" />
      <rect x="32" y="36" width="136" height="236" rx="28" fill="url(#mobile-screen)" />
      <rect x="96" y="22" width="40" height="8" rx="4" fill="#12221A" />
      <circle cx="116" cy="268" r="18" fill="#12221A" opacity="0.3" />
      <g transform="translate(48 68)">
        <rect width="104" height="40" rx="16" fill="#20C997" />
        <rect x="12" y="10" width="60" height="12" rx="6" fill="#F6F9F8" />
        <rect x="12" y="62" width="80" height="16" rx="8" fill="#0F3D2E" opacity="0.12" />
      </g>
      <g transform="translate(48 132)">
        <rect width="104" height="88" rx="18" fill="#F2F9F5" />
        <rect x="16" y="20" width="72" height="12" rx="6" fill="#0F3D2E" opacity="0.24" />
        <rect x="16" y="40" width="72" height="12" rx="6" fill="#145943" opacity="0.22" />
        <rect x="16" y="60" width="48" height="16" rx="8" fill="url(#mobile-primary)" />
        <rect x="72" y="60" width="16" height="16" rx="6" fill="#0F3D2E" opacity="0.12" />
      </g>
      <g transform="translate(48 236)">
        <rect width="44" height="12" rx="6" fill="#20C997" opacity="0.8" />
        <rect x="56" width="44" height="12" rx="6" fill="#145943" opacity="0.3" />
      </g>
    </g>
  </g>
</svg>
