<svg width="420" height="320" viewBox="0 0 420 320" xmlns="http://www.w3.org/2000/svg" role="img" aria-labelledby="operationsTitle operationsDesc">
  <title id="operationsTitle">Operações conectadas no MeuCondomínio</title>
  <desc id="operationsDesc">Kanban de tarefas com assembleia digital, reservas aprovadas e checklist de portaria.</desc>
  <defs>
    <linearGradient id="operations-bg" x1="0" y1="0" x2="1" y2="1">
      <stop offset="0" stop-color="#0F3D2E" />
      <stop offset="1" stop-color="#0E5F46" />
    </linearGradient>
    <linearGradient id="operations-card" x1="0" y1="0" x2="1" y2="1">
      <stop offset="0" stop-color="#FFFFFF" />
      <stop offset="1" stop-color="#F2F9F5" />
    </linearGradient>
    <filter id="operations-shadow" x="-40" y="-40" width="500" height="400" color-interpolation-filters="sRGB">
      <feDropShadow dx="0" dy="24" stdDeviation="24" flood-color="#0B2B20" flood-opacity="0.25" />
    </filter>
  </defs>
  <rect width="420" height="320" rx="36" fill="url(#operations-bg)" />
  <g transform="translate(48 44)" filter="url(#operations-shadow)">
    <rect width="324" height="232" rx="28" fill="url(#operations-card)" />
    <g transform="translate(28 32)">
      <rect width="88" height="28" rx="12" fill="#20C997" opacity="0.25" />
      <rect x="108" width="88" height="28" rx="12" fill="#0F3D2E" opacity="0.12" />
      <rect x="216" width="56" height="28" rx="12" fill="#20C997" opacity="0.35" />
    </g>
    <g transform="translate(28 80)">
      <rect width="92" height="140" rx="20" fill="#F7FAF9" />
      <rect x="16" y="20" width="60" height="12" rx="6" fill="#145943" opacity="0.24" />
      <rect x="16" y="44" width="60" height="12" rx="6" fill="#20C997" opacity="0.65" />
      <rect x="16" y="68" width="60" height="12" rx="6" fill="#0F3D2E" opacity="0.18" />
      <rect x="16" y="100" width="36" height="12" rx="6" fill="#20C997" opacity="0.45" />
    </g>
    <g transform="translate(132 80)">
      <rect width="92" height="140" rx="20" fill="#ECF7F3" />
      <rect x="16" y="20" width="60" height="12" rx="6" fill="#0F3D2E" opacity="0.2" />
      <rect x="16" y="44" width="60" height="12" rx="6" fill="#145943" opacity="0.28" />
      <rect x="16" y="68" width="60" height="36" rx="12" fill="#20C997" opacity="0.65" />
      <rect x="16" y="112" width="60" height="12" rx="6" fill="#0F3D2E" opacity="0.16" />
    </g>
    <g transform="translate(236 80)">
      <rect width="92" height="140" rx="20" fill="#F7FAF9" />
      <rect x="16" y="24" width="60" height="12" rx="6" fill="#145943" opacity="0.22" />
      <rect x="16" y="48" width="60" height="12" rx="6" fill="#0F3D2E" opacity="0.18" />
      <g transform="translate(16 72)">
        <rect width="60" height="12" rx="6" fill="#20C997" opacity="0.32" />
        <rect y="24" width="60" height="12" rx="6" fill="#20C997" opacity="0.65" />
        <rect y="48" width="60" height="12" rx="6" fill="#0F3D2E" opacity="0.16" />
      </g>
      <rect x="16" y="132" width="48" height="12" rx="6" fill="#20C997" opacity="0.4" />
    </g>
    <g transform="translate(28 232)">
      <rect width="128" height="20" rx="10" fill="#D7ECE3" />
      <rect x="148" width="88" height="20" rx="10" fill="#D7ECE3" />
      <rect x="248" width="60" height="20" rx="10" fill="#D7ECE3" />
    </g>
  </g>
  <g transform="translate(72 36)">
    <rect width="64" height="20" rx="10" fill="#20C997" opacity="0.45" />
    <rect x="80" width="64" height="20" rx="10" fill="#FFFFFF" opacity="0.35" />
  </g>
</svg>
