<svg width="160" height="184" viewBox="0 0 160 184" xmlns="http://www.w3.org/2000/svg" role="img" aria-labelledby="testimonialTitle testimonialDesc">
  <title id="testimonialTitle">Retrato estilizado de síndica</title>
  <desc id="testimonialDesc">Avatar em estilo vetorial com fundo em degradê verde e crachá profissional.</desc>
  <defs>
    <linearGradient id="avatar-bg" x1="0" y1="0" x2="1" y2="1">
      <stop offset="0" stop-color="#20C997" />
      <stop offset="1" stop-color="#0F3D2E" />
    </linearGradient>
    <linearGradient id="avatar-hair" x1="0" y1="0" x2="0" y2="1">
      <stop offset="0" stop-color="#1F2937" />
      <stop offset="1" stop-color="#111827" />
    </linearGradient>
    <linearGradient id="avatar-shirt" x1="0" y1="0" x2="1" y2="1">
      <stop offset="0" stop-color="#145943" />
      <stop offset="1" stop-color="#0D4C39" />
    </linearGradient>
    <filter id="avatar-shadow" x="-20" y="-20" width="200" height="224" color-interpolation-filters="sRGB">
      <feDropShadow dx="0" dy="16" stdDeviation="18" flood-color="#0B2B20" flood-opacity="0.35" />
    </filter>
  </defs>
  <rect width="160" height="184" rx="48" fill="url(#avatar-bg)" />
  <g filter="url(#avatar-shadow)" transform="translate(16 16)">
    <circle cx="64" cy="64" r="56" fill="#F6F9F8" />
    <path d="M36 62c2-20 18-34 36-34s34 14 36 34c-6 4-14 6-22 6H58c-8 0-16-2-22-6Z" fill="url(#avatar-hair)" />
    <path d="M48 68c6 6 14 10 22 10s16-4 22-10c2 4 4 10 4 16 0 18-12 32-26 32s-26-14-26-32c0-6 2-12 4-16Z" fill="#F8EEE9" />
    <path d="M36 122c10-12 24-18 38-18s28 6 38 18v24H36v-24Z" fill="url(#avatar-shirt)" />
    <rect x="54" y="140" width="40" height="20" rx="10" fill="#FFFFFF" opacity="0.9" />
    <rect x="62" y="144" width="24" height="4" rx="2" fill="#145943" opacity="0.65" />
    <rect x="62" y="152" width="24" height="4" rx="2" fill="#20C997" opacity="0.8" />
    <path d="M58 98h12c2 0 4 2 4 4s-2 4-4 4h-4l4 8-8 4-8-4 4-8h-4c-2 0-4-2-4-4s2-4 4-4h12Z" fill="#20C997" opacity="0.35" />
  </g>
</svg>
