<svg width="880" height="640" viewBox="0 0 880 640" xmlns="http://www.w3.org/2000/svg" role="img" aria-labelledby="marketTitle marketDesc">
  <title id="marketTitle">Marketplace MeuCondomínio</title>
  <desc id="marketDesc">Mosaico com cards inspirados no Marketing Screens exibindo avaliações, filtros e listagens.</desc>
  <defs>
    <linearGradient id="market-bg" x1="80" y1="40" x2="760" y2="600" gradientUnits="userSpaceOnUse">
      <stop offset="0" stop-color="#0B1120"/>
      <stop offset="1" stop-color="#020617"/>
    </linearGradient>
    <filter id="market-shadow" x="-60" y="-60" width="1000" height="760" color-interpolation-filters="sRGB">
      <feDropShadow dx="0" dy="40" stdDeviation="45" flood-color="#01050f" flood-opacity="0.55"/>
    </filter>
    <linearGradient id="market-pill" x1="0" y1="0" x2="1" y2="0">
      <stop offset="0" stop-color="#22C55E"/>
      <stop offset="1" stop-color="#0EA5E9"/>
    </linearGradient>
  </defs>
  <rect x="60" y="40" width="760" height="560" rx="56" fill="url(#market-bg)"/>
  <g filter="url(#market-shadow)">
    <rect x="160" y="120" width="240" height="360" rx="32" fill="#0F172A" stroke="#1E293B" stroke-width="1.5"/>
    <rect x="180" y="148" width="200" height="44" rx="16" fill="#0B1120" stroke="#1E293B" stroke-width="1"/>
    <rect x="200" y="162" width="120" height="16" rx="8" fill="#22C55E"/>
    <rect x="180" y="210" width="200" height="90" rx="24" fill="#020617" stroke="#1E293B" stroke-opacity="0.6"/>
    <rect x="200" y="234" width="76" height="52" rx="16" fill="#38BDF8" opacity="0.35"/>
    <rect x="288" y="228" width="80" height="14" rx="7" fill="#E0F2FE" opacity="0.85"/>
    <rect x="288" y="252" width="96" height="12" rx="6" fill="#22D3EE" opacity="0.7"/>
    <rect x="180" y="314" width="200" height="90" rx="24" fill="#020617" stroke="#1E293B" stroke-opacity="0.6"/>
    <rect x="200" y="338" width="76" height="52" rx="16" fill="#34D399" opacity="0.35"/>
    <rect x="288" y="332" width="84" height="14" rx="7" fill="#E0F2FE" opacity="0.85"/>
    <rect x="288" y="356" width="96" height="12" rx="6" fill="#5EEAD4" opacity="0.7"/>
    <rect x="180" y="418" width="200" height="48" rx="18" fill="#0EA5E9" opacity="0.2"/>
    <rect x="220" y="430" width="120" height="16" rx="8" fill="#F8FAFC" opacity="0.75"/>
  </g>
  <g filter="url(#market-shadow)">
    <rect x="392" y="96" width="328" height="176" rx="28" fill="#0F172A" stroke="#1E293B" stroke-width="1.5"/>
    <rect x="424" y="124" width="96" height="32" rx="16" fill="#0B1120" stroke="#1E293B" stroke-width="1"/>
    <rect x="436" y="136" width="72" height="12" rx="6" fill="#22C55E"/>
    <rect x="536" y="124" width="160" height="32" rx="16" fill="#0B1120" stroke="#1E293B" stroke-width="1"/>
    <rect x="548" y="136" width="136" height="12" rx="6" fill="#38BDF8"/>
    <rect x="424" y="172" width="264" height="80" rx="24" fill="#020617" stroke="#1E293B" stroke-opacity="0.6"/>
    <rect x="448" y="194" width="84" height="36" rx="14" fill="#22D3EE" opacity="0.35"/>
    <rect x="548" y="186" width="88" height="14" rx="7" fill="#F1F5F9" opacity="0.85"/>
    <rect x="548" y="210" width="120" height="12" rx="6" fill="#22C55E" opacity="0.75"/>
  </g>
  <g filter="url(#market-shadow)">
    <rect x="360" y="320" width="344" height="208" rx="32" fill="#050C26" stroke="#1E293B" stroke-width="1.5"/>
    <rect x="392" y="348" width="280" height="36" rx="18" fill="#0B1120" stroke="#1E293B" stroke-width="1"/>
    <rect x="408" y="360" width="120" height="12" rx="6" fill="#22C55E"/>
    <rect x="392" y="396" width="140" height="28" rx="14" fill="#020617" stroke="#1E293B" stroke-opacity="0.5"/>
    <rect x="548" y="396" width="108" height="28" rx="14" fill="#020617" stroke="#1E293B" stroke-opacity="0.5"/>
    <rect x="412" y="404" width="100" height="12" rx="6" fill="#38BDF8" opacity="0.65"/>
    <rect x="568" y="404" width="80" height="12" rx="6" fill="#5EEAD4" opacity="0.65"/>
    <rect x="392" y="440" width="280" height="72" rx="24" fill="#020617" stroke="#1E293B" stroke-opacity="0.55"/>
    <rect x="416" y="460" width="96" height="36" rx="14" fill="#22D3EE" opacity="0.35"/>
    <rect x="520" y="456" width="120" height="16" rx="8" fill="#F8FAFC" opacity="0.85"/>
    <rect x="520" y="482" width="96" height="12" rx="6" fill="#E2E8F0" opacity="0.7"/>
  </g>
  <g>
    <rect x="248" y="504" width="136" height="48" rx="24" fill="url(#market-pill)"/>
    <rect x="272" y="520" width="88" height="16" rx="8" fill="#020617" opacity="0.8"/>
  </g>
</svg>
